<?xml version="1.0" encoding="UTF-8"?>
<svg width="481px" height="101px" viewBox="0 0 481 101" version="1.1" xmlns="http://www.w3.org/2000/svg" xmlns:xlink="http://www.w3.org/1999/xlink">
    <!-- Generator: Sketch 45.2 (43514) - http://www.bohemiancoding.com/sketch -->
    <title>immovesting</title>
    <desc>Created with Sketch.</desc>
    <defs></defs>
    <g id="Page-1" stroke="none" stroke-width="1" fill="none" fill-rule="evenodd">
        <g id="Artboard-Copy" transform="translate(-162.000000, -114.000000)" fill="#3E8BFF">
            <path d="M175.125974,141.441406 L175.125974,189 L164.139646,189 L164.139646,141.441406 L175.125974,141.441406 Z M162.47949,121.666016 C162.47949,119.745433 163.179352,118.085293 164.579099,116.685547 C165.978846,115.2858 167.655261,114.585938 169.608396,114.585938 C171.594083,114.585938 173.286774,115.2858 174.686521,116.685547 C176.086267,118.052741 176.78613,119.729157 176.78613,121.714844 C176.78613,123.700531 176.086267,125.393222 174.686521,126.792969 C173.319326,128.192715 171.642911,128.892578 169.657224,128.892578 C167.671537,128.892578 165.978846,128.192715 164.579099,126.792969 C163.179352,125.393222 162.47949,123.684255 162.47949,121.666016 Z M183.04199,141.441406 L194.028318,141.441406 L194.028318,145.835938 C196.144214,143.622385 197.950837,142.125004 199.44824,141.34375 C201.0433,140.529944 203.045233,140.123047 205.454099,140.123047 C210.82522,140.123047 215.073224,142.466773 218.19824,147.154297 C221.648778,142.466773 226.319955,140.123047 232.211912,140.123047 C242.921601,140.123047 248.276365,146.617123 248.276365,159.605469 L248.276365,189 L237.241209,189 L237.241209,162.583984 C237.241209,158.02667 236.687829,154.804046 235.581053,152.916016 C234.441724,150.995433 232.569998,150.035156 229.965818,150.035156 C226.938459,150.035156 224.733078,151.174468 223.349607,153.453125 C221.966137,155.731782 221.274412,159.393855 221.274412,164.439453 L221.274412,189 L210.239256,189 L210.239256,162.730469 C210.239256,154.266885 207.797874,150.035156 202.915037,150.035156 C199.822574,150.035156 197.568364,151.190744 196.152342,153.501953 C194.736319,155.813163 194.028318,159.458959 194.028318,164.439453 L194.028318,189 L183.04199,189 L183.04199,141.441406 Z M256.143553,141.441406 L267.129881,141.441406 L267.129881,145.835938 C269.245777,143.622385 271.0524,142.125004 272.549803,141.34375 C274.144863,140.529944 276.146796,140.123047 278.555662,140.123047 C283.926783,140.123047 288.174787,142.466773 291.299803,147.154297 C294.750341,142.466773 299.421518,140.123047 305.313475,140.123047 C316.023164,140.123047 321.377928,146.617123 321.377928,159.605469 L321.377928,189 L310.342772,189 L310.342772,162.583984 C310.342772,158.02667 309.789392,154.804046 308.682616,152.916016 C307.543287,150.995433 305.671561,150.035156 303.067381,150.035156 C300.040022,150.035156 297.834641,151.174468 296.45117,153.453125 C295.0677,155.731782 294.375975,159.393855 294.375975,164.439453 L294.375975,189 L283.340819,189 L283.340819,162.730469 C283.340819,154.266885 280.899437,150.035156 276.0166,150.035156 C272.924137,150.035156 270.669927,151.190744 269.253905,153.501953 C267.837882,155.813163 267.129881,159.458959 267.129881,164.439453 L267.129881,189 L256.143553,189 L256.143553,141.441406 Z M326.999022,164.878906 C326.999022,158.010382 329.45668,152.167342 334.372069,147.349609 C339.287458,142.531877 345.276982,140.123047 352.340819,140.123047 C359.437209,140.123047 365.459284,142.548153 370.407225,147.398438 C375.290062,152.248722 377.731444,158.205694 377.731444,165.269531 C377.731444,172.398473 375.273786,178.371721 370.358397,183.189453 C365.410456,187.974633 359.339553,190.367188 352.145507,190.367188 C345.016565,190.367188 339.043317,187.925806 334.225585,183.042969 C329.407852,178.225236 326.999022,172.170609 326.999022,164.878906 Z M338.229491,165.074219 C338.229491,169.826847 339.49901,173.586575 342.038085,176.353516 C344.642264,179.153009 348.076475,180.552734 352.340819,180.552734 C356.637716,180.552734 360.071926,179.169285 362.643553,176.402344 C365.215181,173.635403 366.500975,169.940778 366.500975,165.318359 C366.500975,160.69594 365.215181,157.001316 362.643553,154.234375 C360.039374,151.434882 356.605163,150.035156 352.340819,150.035156 C348.141579,150.035156 344.739921,151.434882 342.135741,154.234375 C339.531561,157.033868 338.229491,160.647113 338.229491,165.074219 Z M387.258788,141.441406 L399.563476,168.150391 L411.819335,141.441406 L424.172851,141.441406 L399.46582,192.271484 L374.954101,141.441406 L387.258788,141.441406 Z M467.196289,167.808594 L433.114258,167.808594 C433.407228,171.714863 434.676746,174.823556 436.922851,177.134766 C439.168956,179.413423 442.049787,180.552734 445.565429,180.552734 C448.299818,180.552734 450.562165,179.901699 452.352539,178.599609 C454.11036,177.29752 456.112293,174.888689 458.358398,171.373047 L467.635742,176.548828 C466.203443,178.990247 464.689786,181.081697 463.094726,182.823242 C461.499666,184.564787 459.790699,185.997065 457.967773,187.120117 C456.144847,188.24317 454.175466,189.065102 452.05957,189.585938 C449.943674,190.106773 447.648775,190.367188 445.174804,190.367188 C438.078415,190.367188 432.381857,188.088564 428.084961,183.53125 C423.788064,178.941383 421.639648,172.854205 421.639648,165.269531 C421.639648,157.749962 423.722961,151.662784 427.889648,147.007812 C432.088888,142.417946 437.655239,140.123047 444.588867,140.123047 C451.5876,140.123047 457.121399,142.352842 461.190429,146.8125 C465.226908,151.239605 467.245117,157.375612 467.245117,165.220703 L467.196289,167.808594 Z M455.916992,158.824219 C454.387036,152.964814 450.692412,150.035156 444.833008,150.035156 C443.498365,150.035156 442.245123,150.238605 441.073242,150.645508 C439.901361,151.052411 438.835291,151.638343 437.875,152.40332 C436.914709,153.168298 436.092777,154.087885 435.409179,155.162109 C434.725582,156.236333 434.204754,157.457024 433.846679,158.824219 L455.916992,158.824219 Z M500.844727,149.546875 L491.762696,154.380859 C490.330397,151.451157 488.556326,149.986328 486.44043,149.986328 C485.43131,149.986328 484.568689,150.319984 483.852539,150.987305 C483.13639,151.654626 482.778321,152.509109 482.778321,153.550781 C482.778321,155.373707 484.894185,157.18033 489.125977,158.970703 C494.952829,161.477226 498.875316,163.788401 500.893555,165.904297 C502.911794,168.020193 503.920899,170.868472 503.920899,174.449219 C503.920899,179.039085 502.228207,182.880193 498.842774,185.972656 C495.554997,188.902358 491.583682,190.367188 486.928711,190.367188 C478.953411,190.367188 473.305681,186.477252 469.985352,178.697266 L479.360352,174.351562 C480.662442,176.63022 481.65527,178.078773 482.338867,178.697266 C483.67351,179.934251 485.268546,180.552734 487.124024,180.552734 C490.83498,180.552734 492.69043,178.860043 492.69043,175.474609 C492.69043,173.521475 491.258153,171.698576 488.393555,170.005859 C487.286779,169.452471 486.180019,168.915367 485.073242,168.394531 C483.966466,167.873695 482.84343,167.336591 481.704102,166.783203 C478.513982,165.220695 476.26791,163.658211 474.965821,162.095703 C473.305656,160.110016 472.475586,157.554703 472.475586,154.429688 C472.475586,150.295552 473.891588,146.877618 476.723633,144.175781 C479.620783,141.473945 483.136373,140.123047 487.270508,140.123047 C493.357778,140.123047 497.882472,143.264292 500.844727,149.546875 Z M519.112305,151.695312 L519.112305,189 L508.125977,189 L508.125977,151.695312 L503.438477,151.695312 L503.438477,141.441406 L508.125977,141.441406 L508.125977,124.009766 L519.112305,124.009766 L519.112305,141.441406 L527.657227,141.441406 L527.657227,151.695312 L519.112305,151.695312 Z M540.114259,141.441406 L540.114259,189 L529.127931,189 L529.127931,141.441406 L540.114259,141.441406 Z M527.467775,121.666016 C527.467775,119.745433 528.167637,118.085293 529.567384,116.685547 C530.967131,115.2858 532.643546,114.585938 534.596681,114.585938 C536.582368,114.585938 538.275059,115.2858 539.674806,116.685547 C541.074552,118.052741 541.774415,119.729157 541.774415,121.714844 C541.774415,123.700531 541.074552,125.393222 539.674806,126.792969 C538.307612,128.192715 536.631196,128.892578 534.645509,128.892578 C532.659822,128.892578 530.967131,128.192715 529.567384,126.792969 C528.167637,125.393222 527.467775,123.684255 527.467775,121.666016 Z M548.030275,141.441406 L559.065431,141.441406 L559.065431,145.835938 C562.906596,142.027325 567.23598,140.123047 572.053713,140.123047 C577.587594,140.123047 581.900702,141.864566 584.993166,145.347656 C587.66245,148.309911 588.997072,153.143847 588.997072,159.849609 L588.997072,189 L577.961916,189 L577.961916,162.4375 C577.961916,157.749977 577.310881,154.511077 576.008791,152.720703 C574.739253,150.897777 572.428078,149.986328 569.075197,149.986328 C565.429345,149.986328 562.841481,151.190743 561.311525,153.599609 C559.814122,155.975923 559.065431,160.126272 559.065431,166.050781 L559.065431,189 L548.030275,189 L548.030275,141.441406 Z M642.860354,187.876953 C642.860354,190.123058 642.787112,192.100577 642.640627,193.80957 C642.494142,195.518563 642.290694,197.024082 642.030276,198.326172 C641.249022,201.906919 639.719089,204.98306 637.440432,207.554688 C633.143535,212.502629 627.235391,214.976562 619.715822,214.976562 C613.368134,214.976562 608.143577,213.267595 604.041994,209.849609 C599.810202,206.333967 597.368821,201.467479 596.717776,195.25 L607.752932,195.25 C608.176111,197.593762 608.875974,199.400384 609.852541,200.669922 C612.131198,203.632176 615.451478,205.113281 619.813479,205.113281 C627.853883,205.113281 631.874026,200.18169 631.874026,190.318359 L631.874026,183.677734 C627.512025,188.137392 622.482778,190.367188 616.786135,190.367188 C610.308238,190.367188 605.002301,188.023461 600.868166,183.335938 C596.701479,178.58331 594.618166,172.642614 594.618166,165.513672 C594.618166,158.580043 596.554996,152.688175 600.428713,147.837891 C604.595401,142.694636 610.096648,140.123047 616.932619,140.123047 C622.922233,140.123047 627.902652,142.352842 631.874026,146.8125 L631.874026,141.441406 L642.860354,141.441406 L642.860354,187.876953 Z M632.313479,165.318359 C632.313479,160.69594 631.076512,157.001316 628.602541,154.234375 C626.096018,151.40233 622.88967,149.986328 618.983401,149.986328 C614.816713,149.986328 611.528986,151.532537 609.120119,154.625 C606.939119,157.391941 605.848635,160.972634 605.848635,165.367188 C605.848635,169.696636 606.939119,173.244778 609.120119,176.011719 C611.496433,179.039078 614.784161,180.552734 618.983401,180.552734 C623.18264,180.552734 626.50292,179.022802 628.944338,175.962891 C631.190443,173.19595 632.313479,169.647808 632.313479,165.318359 Z" id="immovesting"></path>
        </g>
    </g>
</svg>