<?xml version="1.0" encoding="UTF-8"?>
<svg width="50px" height="30px" viewBox="0 0 50 30" version="1.1" xmlns="http://www.w3.org/2000/svg" xmlns:xlink="http://www.w3.org/1999/xlink">
    <!-- Generator: Sketch 45.1 (43504) - http://www.bohemiancoding.com/sketch -->
    <title>behance_black</title>
    <desc>Created with Sketch.</desc>
    <defs></defs>
    <g id="Page-2" stroke="none" stroke-width="1" fill="none" fill-rule="evenodd">
        <g id="Home" transform="translate(-1036.000000, -688.000000)" fill-rule="nonzero" fill="#000000">
            <g id="behance_black" transform="translate(1036.000000, 688.000000)">
                <path d="M45.061717,4.26716418 L32.5590487,4.26716418 L32.5590487,1.27052239 L45.062761,1.27052239 L45.062761,4.26716418 L45.061717,4.26716418 L45.061717,4.26716418 Z M24.2357308,16.5554105 C25.0424593,17.7611193 25.4455917,19.2250747 25.4455917,20.943806 C25.4455917,22.721194 24.9910673,24.3156717 24.0663573,25.7241045 C23.4780742,26.6561193 22.7476798,27.4433955 21.8700697,28.0772015 C20.8816705,28.8101865 19.711485,29.3127985 18.3662413,29.5813433 C17.0167053,29.8503358 15.5560325,29.9862313 13.9825986,29.9862313 L0,29.9862313 L0,0.0276492537 L14.9941995,0.0276492537 C18.7736658,0.086977612 21.4531323,1.14358209 23.0353828,3.2186194 C23.9848028,4.49126865 24.4552205,6.01835822 24.4552205,7.79339552 C24.4552205,9.62496268 23.9791183,11.0904851 23.0204177,12.2039552 C22.487123,12.8282463 21.699304,13.3961194 20.6563805,13.908694 C22.2360788,14.4667164 23.4346868,15.3454478 24.2357308,16.5554105 Z M7.16032483,11.838806 L13.7301624,11.838806 C15.0802784,11.838806 16.1716937,11.591194 17.012297,11.096194 C17.8523202,10.6019776 18.2714617,9.72347015 18.2714617,8.46212687 C18.2714617,7.06858208 17.7164733,6.1436194 16.6038283,5.69843283 C15.6474478,5.38914178 14.4237819,5.22985075 12.9389791,5.22985075 L7.16032483,5.22985075 L7.16032483,11.838806 Z M18.9040603,20.5158582 C18.9040603,18.9596642 18.2448957,17.883806 16.9292343,17.3065298 C16.1935035,16.9784328 15.1554524,16.8107463 13.824478,16.7987687 L7.16032483,16.7987687 L7.16032483,24.7825747 L13.7213457,24.7825747 C15.0692575,24.7825747 16.112529,24.6123135 16.8654292,24.2571268 C18.2232018,23.6040672 18.9040603,22.361194 18.9040603,20.5158582 Z M49.70058,15.6420895 C49.8516242,16.6222388 49.9199537,18.0443283 49.8922273,19.903097 L33.699884,19.903097 C33.7892112,22.0597388 34.5607888,23.5679105 36.02413,24.4309702 C36.9066125,24.9722015 37.9765662,25.2364925 39.2294663,25.2364925 C40.55058,25.2364925 41.6273782,24.9142165 42.4562645,24.2517537 C42.9078887,23.900597 43.3062645,23.4049253 43.650696,22.779515 L49.5857308,22.779515 C49.4302785,24.0532835 48.7156613,25.3451865 47.4314385,26.6580223 C45.4417633,28.7447015 42.6512762,29.7910075 39.0675173,29.7910075 C36.1069605,29.7910075 33.4977958,28.9085822 31.2330627,27.150112 C28.97587,25.385485 27.8422273,22.5236193 27.8422273,18.5536567 C27.8422273,14.8308582 28.8599768,11.9814179 30.9023202,9.9980597 C32.9522042,8.01100747 35.5976798,7.02201493 38.8585847,7.02201493 C40.7914153,7.02201493 42.5337587,7.35537313 44.088167,8.0255597 C45.637703,8.69641792 46.9183295,9.7522388 47.9269142,11.2033209 C48.8396752,12.4812313 49.4266822,13.9588433 49.70058,15.6420895 Z M43.8587007,16.2011194 C43.749884,14.7098507 43.2338747,13.5811567 42.3047563,12.8097761 C41.3832947,12.0362686 40.2321345,11.6479478 38.8585847,11.6479478 C37.3636892,11.6479478 36.2093968,12.0630224 35.3892112,12.8788433 C34.563457,13.6929851 34.049652,14.7998507 33.8390952,16.2012314 L43.8587007,16.2012314 L43.8587007,16.2011194 Z" id="Behance"></path>
            </g>
        </g>
    </g>
</svg>