<?xml version="1.0" encoding="UTF-8"?>
<svg width="15px" height="15px" viewBox="0 0 15 15" version="1.1" xmlns="http://www.w3.org/2000/svg" xmlns:xlink="http://www.w3.org/1999/xlink">
    <!-- Generator: Sketch 44.1 (41455) - http://www.bohemiancoding.com/sketch -->
    <title>dribbble-logo</title>
    <desc>Created with Sketch.</desc>
    <defs></defs>
    <g id="Page-2" stroke="none" stroke-width="1" fill="none" fill-rule="evenodd">
        <g id="Home" transform="translate(-1293.000000, -3199.000000)" fill-rule="nonzero" fill="#FFFFFF">
            <g id="Group" transform="translate(0.000000, 3030.000000)">
                <g id="RS" transform="translate(1231.000000, 169.000000)">
                    <g id="dribbble-logo" transform="translate(62.000000, 0.000000)">
                        <g id="Capa_1">
                            <path d="M7.48433875,0 C3.35060325,0.000313225058 0,3.35112529 0,7.4849652 C0,11.6180742 3.35060325,14.9692691 7.48433875,14.9692691 C11.6180742,14.9692691 14.9688167,11.6180742 14.9692691,7.4849652 C14.9688167,3.35112529 11.6180742,0.000313225058 7.48433875,0 Z M12.0702668,3.88071926 C12.8005336,4.80803944 13.2577726,5.9562877 13.3154408,7.21023202 C12.4704988,7.03089327 11.6721578,6.94360789 10.9279002,6.94360789 L10.9279002,6.94343387 L10.9224014,6.94343387 C10.3232019,6.94343387 9.76085847,6.99783063 9.23084687,7.09183295 C9.10204176,6.77613689 8.97146172,6.47290023 8.83990719,6.182471 C10.0202784,5.66474478 11.1532483,4.9275522 12.0702668,3.88071926 Z M7.48433875,1.64547564 C8.86169374,1.64547564 10.1252436,2.12700696 11.1256148,2.92865429 C10.3600928,3.84515081 9.34966357,4.50890951 8.25810905,4.97759861 C7.49112529,3.49447796 6.75,2.43348028 6.24337587,1.78482599 C6.64440835,1.69583527 7.05835267,1.64547564 7.48433875,1.64547564 Z M4.90513921,2.25417633 C5.31045244,2.73292343 6.12194896,3.78595128 6.98867749,5.4300348 C5.22595128,5.95475638 3.45093968,6.07802784 2.37696056,6.07771462 C2.34633411,6.07771462 2.31605568,6.07771462 2.28633411,6.07740139 L2.28535963,6.07740139 C2.10448956,6.07740139 1.94895592,6.07454756 1.81910673,6.07058005 C2.23809745,4.39399072 3.38669374,3.00546404 4.90513921,2.25417633 Z M1.6449884,7.4849652 C1.6449884,7.4575058 1.64596288,7.42959397 1.64759861,7.40084687 C1.81433875,7.40700696 2.02816705,7.41229698 2.28553364,7.41229698 L2.28699536,7.41229698 C3.46078886,7.40464037 5.51022042,7.30656613 7.58718097,6.65084687 C7.70039443,6.89839907 7.8124594,7.15614849 7.92323666,7.4237471 C6.5362413,7.88763341 5.44385151,8.62667053 4.63587007,9.36264501 C3.85802784,10.0711253 3.3325058,10.7728538 3.02544084,11.2412993 C2.1661949,10.2239791 1.64544084,8.91661253 1.6449884,7.4849652 Z M7.48433875,13.3245592 C6.18483759,13.3245592 4.98709977,12.8947796 4.01544084,12.1736311 C4.22196056,11.8335035 4.66475638,11.1805336 5.36986079,10.5058121 C6.09532483,9.81062645 7.09677494,9.0949768 8.40431555,8.66909513 C8.8487471,9.91493039 9.25089327,11.3390951 9.55722738,12.9422158 C8.91187935,13.1879582 8.21457077,13.3245592 7.48433875,13.3245592 Z M10.7892459,12.287645 C10.4929698,10.8377958 10.1205104,9.53042923 9.71154292,8.3637007 C10.0907889,8.30930394 10.4888979,8.27860789 10.9091067,8.27860789 L10.9242111,8.27860789 L10.9251856,8.27860789 L10.9261601,8.27860789 C11.6226334,8.27860789 12.3879814,8.36516241 13.217993,8.5537587 C12.9306613,10.0977842 12.0363341,11.4275638 10.7892459,12.287645 Z" id="Dribbble"></path>
                        </g>
                    </g>
                </g>
            </g>
        </g>
    </g>
</svg>