<?xml version="1.0" encoding="UTF-8"?>
<svg width="15px" height="15px" viewBox="0 0 15 15" version="1.1" xmlns="http://www.w3.org/2000/svg" xmlns:xlink="http://www.w3.org/1999/xlink">
    <!-- Generator: Sketch 44.1 (41455) - http://www.bohemiancoding.com/sketch -->
    <title>github-logo</title>
    <desc>Created with Sketch.</desc>
    <defs></defs>
    <g id="Page-2" stroke="none" stroke-width="1" fill="none" fill-rule="evenodd">
        <g id="Home" transform="translate(-1258.000000, -3199.000000)" fill-rule="nonzero" fill="#FFFFFF">
            <g id="Group" transform="translate(0.000000, 3030.000000)">
                <g id="RS" transform="translate(1231.000000, 169.000000)">
                    <g id="github-logo" transform="translate(27.000000, 0.000000)">
                        <g id="Capa_1">
                            <path d="M13.9794533,3.74395216 C13.3094761,2.59602506 12.4006948,1.68720957 11.2528702,1.01730068 C10.1048747,0.347357631 8.85160592,0.0124715262 7.4921754,0.0124715262 C6.13291572,0.0124715262 4.8792369,0.347460137 3.73148064,1.01730068 C2.58355353,1.6871754 1.67480638,2.59602506 1.00482916,3.74395216 C0.334954442,4.8918451 0,6.14535308 0,7.50444191 C0,9.13701595 0.476309795,10.6050683 1.42916856,11.9089749 C2.38192483,13.2129841 3.61274487,14.1153075 5.1215262,14.6160478 C5.29715262,14.6486446 5.42716401,14.6257175 5.51169704,14.5478474 C5.59626424,14.4698747 5.63849658,14.372221 5.63849658,14.2552961 C5.63849658,14.2357859 5.63682232,14.060262 5.63357631,13.7285194 C5.63022779,13.3967768 5.62865604,13.107369 5.62865604,12.8604328 L5.40427107,12.8992483 C5.26120729,12.9254556 5.08072893,12.9365604 4.86283599,12.9334169 C4.64504556,12.9303759 4.41895216,12.9075513 4.18486333,12.8651139 C3.95067198,12.8230524 3.73284738,12.7255011 3.53121868,12.5726651 C3.32969248,12.4198292 3.1866287,12.2197722 3.1020615,11.9728018 L3.00451025,11.7483144 C2.93948747,11.598861 2.83711845,11.432836 2.69726651,11.2508542 C2.55741458,11.0687016 2.41599089,10.9452164 2.27292711,10.8801936 L2.20462415,10.8312984 C2.15911162,10.7988041 2.11687927,10.7596128 2.0778246,10.7141344 C2.0388041,10.668656 2.00958998,10.6231435 1.99007973,10.5775626 C1.97053531,10.5319476 1.98673121,10.494533 2.03883827,10.4651822 C2.09094533,10.4358314 2.1851139,10.4215831 2.32175399,10.4215831 L2.51678815,10.4507289 C2.64686788,10.4767995 2.80776765,10.5546697 2.99969248,10.6848178 C3.19151481,10.8148633 3.34920273,10.9839294 3.47279043,11.1919476 C3.62244875,11.4586674 3.80275626,11.6619021 4.01422551,11.801754 C4.22552392,11.9416059 4.43856492,12.0114123 4.65314351,12.0114123 C4.8677221,12.0114123 5.05305239,11.9951481 5.20920273,11.9627904 C5.36518223,11.930262 5.5115262,11.8813667 5.64816629,11.8163781 C5.70669704,11.3804556 5.86605923,11.0455695 6.12611617,10.8114806 C5.75545558,10.7725285 5.42220957,10.713861 5.12620729,10.6358542 C4.83037585,10.5577449 4.5246697,10.4309795 4.20929385,10.2552164 C3.89374715,10.0796925 3.63198178,9.86173121 3.42392938,9.60170843 C3.21584282,9.34154897 3.04506834,9 2.9118451,8.57736902 C2.77855353,8.1545672 2.71189066,7.6668451 2.71189066,7.11406606 C2.71189066,6.32699317 2.96883827,5.65722096 3.48263098,5.10437358 C3.24194761,4.51264237 3.2646697,3.84929385 3.5508656,3.11439636 C3.73947608,3.05579727 4.01917995,3.09977221 4.38984055,3.24604784 C4.76056948,3.3923918 5.03200456,3.51775626 5.20441913,3.62169704 C5.37683371,3.72560364 5.51497722,3.81365604 5.61905467,3.88506834 C6.22400911,3.71603645 6.84830296,3.63150342 7.49210706,3.63150342 C8.13591116,3.63150342 8.76034169,3.71603645 9.3653303,3.88506834 L9.73602506,3.65104784 C9.98952164,3.49489749 10.2888724,3.35179954 10.6333599,3.22171982 C10.9780524,3.09170843 11.2416287,3.05589977 11.4238155,3.11449886 C11.7163667,3.84943052 11.7424374,4.51274487 11.5016856,5.10447608 C12.0154442,5.65732346 12.2724943,6.32726651 12.2724943,7.11416856 C12.2724943,7.66694761 12.2055923,8.15620729 12.0725057,8.58225513 C11.9392483,9.0083713 11.7670046,9.34957859 11.5557062,9.60659453 C11.3441686,9.86357631 11.0807289,10.0798292 10.7653531,10.2553189 C10.4499089,10.4309453 10.1441002,10.5577107 9.84826879,10.63582 C9.55230068,10.7139294 9.21905467,10.772631 8.84839408,10.8116515 C9.18645786,11.1042027 9.35552392,11.5659909 9.35552392,12.1968109 L9.35552392,14.2550228 C9.35552392,14.3719476 9.39618451,14.4695672 9.47757403,14.547574 C9.55886105,14.6254442 9.68723235,14.6483713 9.86285877,14.6157403 C11.3718451,14.1150683 12.6026651,13.2127107 13.5553872,11.9087016 C14.5080068,10.604795 14.9844875,9.1367426 14.9844875,7.50416856 C14.9841458,6.14525057 14.6490205,4.8918451 13.9794533,3.74395216 Z" id="Shape"></path>
                        </g>
                    </g>
                </g>
            </g>
        </g>
    </g>
</svg>