<?xml version="1.0" encoding="UTF-8"?>
<svg width="32px" height="30px" viewBox="0 0 32 30" version="1.1" xmlns="http://www.w3.org/2000/svg" xmlns:xlink="http://www.w3.org/1999/xlink">
    <!-- Generator: Sketch 44.1 (41455) - http://www.bohemiancoding.com/sketch -->
    <title>linkedin-logo</title>
    <desc>Created with Sketch.</desc>
    <defs></defs>
    <g id="Page-2" stroke="none" stroke-width="1" fill="none" fill-rule="evenodd">
        <g id="Home" transform="translate(-399.000000, -1139.000000)" fill-rule="nonzero" fill="#2D272D">
            <g id="RS" transform="translate(205.000000, 1138.000000)">
                <g id="linkedin-logo" transform="translate(194.000000, 1.000000)">
                    <g id="Capa_1">
                        <path d="M31.9344408,18.0291273 L31.9344408,29.3814028 L25.0898561,29.3814028 L25.0898561,18.7894342 C25.0898561,16.1286454 24.0998608,14.312761 21.622348,14.312761 C19.7310812,14.312761 18.605587,15.536534 18.1104408,16.7203284 C17.9298747,17.1435303 17.8833968,17.7325718 17.8833968,18.3249688 L17.8833968,29.3814028 L11.0365104,29.3814028 C11.0365104,29.3814028 11.1287239,11.4420846 11.0365104,9.58343744 L17.8827285,9.58343744 L17.8827285,12.3897198 C17.8688445,12.4107085 17.8508028,12.4333393 17.8377355,12.4536855 L17.8827285,12.4536855 L17.8827285,12.3897198 C18.7923155,11.0426557 20.4167425,9.11832947 24.0527146,9.11832947 C28.5574385,9.11825808 31.9344408,11.9479565 31.9344408,18.0291273 Z M3.87437587,0.0398358022 C1.53206497,0.0398358022 0,1.51711583 0,3.4597894 C0,5.3601285 1.48774014,6.88224166 3.78349884,6.88224166 L3.82923434,6.88224166 C6.21690951,6.88224166 7.70182831,5.36041406 7.70182831,3.4597894 C7.65683527,1.51711583 6.21690951,0.0398358022 3.87437587,0.0398358022 Z M0.406645012,29.3814028 L7.25093271,29.3814028 L7.25093271,9.58343744 L0.406645012,9.58343744 L0.406645012,29.3814028 Z" id="LinkedIn"></path>
                    </g>
                </g>
            </g>
        </g>
    </g>
</svg>