<?xml version="1.0" encoding="UTF-8"?>
<svg width="16px" height="15px" viewBox="0 0 16 15" version="1.1" xmlns="http://www.w3.org/2000/svg" xmlns:xlink="http://www.w3.org/1999/xlink">
    <!-- Generator: Sketch 44.1 (41455) - http://www.bohemiancoding.com/sketch -->
    <title>linkedin-logo</title>
    <desc>Created with Sketch.</desc>
    <defs></defs>
    <g id="Page-2" stroke="none" stroke-width="1" fill="none" fill-rule="evenodd">
        <g id="Home" transform="translate(-1328.000000, -3200.000000)" fill-rule="nonzero" fill="#FFFFFF">
            <g id="Group" transform="translate(0.000000, 3030.000000)">
                <g id="RS" transform="translate(1231.000000, 169.000000)">
                    <g id="linkedin-logo" transform="translate(97.000000, 1.000000)">
                        <g id="Capa_1">
                            <path d="M15.9672204,9.01456363 L15.9672204,14.6907014 L12.5449281,14.6907014 L12.5449281,9.39471712 C12.5449281,8.06432268 12.0499304,7.15638051 10.811174,7.15638051 C9.8655406,7.15638051 9.3027935,7.768267 9.05522042,8.3601642 C8.96493735,8.57176513 8.94169838,8.86628592 8.94169838,9.16248438 L8.94169838,14.6907014 L5.51825522,14.6907014 C5.51825522,14.6907014 5.56436195,5.7210423 5.51825522,4.79171872 L8.94136427,4.79171872 L8.94136427,6.1948599 C8.93442227,6.20535427 8.92540139,6.21666964 8.91886775,6.22684276 L8.94136427,6.22684276 L8.94136427,6.1948599 C9.39615777,5.52132786 10.2083712,4.55916473 12.0263573,4.55916473 C14.2787193,4.55912904 15.9672204,5.97397823 15.9672204,9.01456363 Z M1.93718794,0.0199179011 C0.766032483,0.0199179011 0,0.758557915 0,1.7298947 C0,2.68006425 0.74387007,3.44112083 1.89174942,3.44112083 L1.91461717,3.44112083 C3.10845476,3.44112083 3.85091415,2.68020703 3.85091415,1.7298947 C3.82841763,0.758557915 3.10845476,0.0199179011 1.93718794,0.0199179011 Z M0.203322506,14.6907014 L3.62546636,14.6907014 L3.62546636,4.79171872 L0.203322506,4.79171872 L0.203322506,14.6907014 Z" id="LinkedIn"></path>
                        </g>
                    </g>
                </g>
            </g>
        </g>
    </g>
</svg>